<svg width="97" height="96" viewBox="0 0 97 96" fill="none" xmlns="http://www.w3.org/2000/svg">
<path d="M53.9172 73.6545C53.5029 73.5406 53.0782 73.7788 52.9591 74.1931C49.4274 86.8754 43.674 94.4464 37.5633 94.4464C32.7006 94.4464 28.0658 89.7029 24.5133 81.0961C22.7112 76.7254 21.313 71.6401 20.3601 66.099C20.355 66.0576 20.3498 66.011 20.3394 65.9696C19.3762 60.3508 18.8739 54.2712 18.8739 47.9948C18.8739 35.4783 20.878 23.7281 24.5185 14.8987C28.0658 6.29712 32.7006 1.55357 37.5633 1.55357C43.907 1.55357 49.8002 9.65282 53.2543 22.9099L48.604 23.8835C48.1534 23.9767 48.0291 24.5619 48.3968 24.8312L55.0823 29.7819C55.3361 29.9735 55.7038 29.8958 55.8591 29.6161L59.9968 22.3972C60.2246 21.9985 59.8777 21.5169 59.4271 21.6101L54.7768 22.5837C51.1207 8.5705 44.6527 0 37.5633 0C32.0274 0 26.8851 5.08016 23.0789 14.3135C19.8889 22.0451 17.9366 31.9568 17.4446 42.6506C6.5127 45.5868 0.500397 49.797 0.500397 54.5353C0.500397 59.4394 7.20662 63.8982 18.9101 66.8033C19.8837 72.2874 21.2819 77.3313 23.0789 81.6865C26.8851 90.9147 32.0274 96 37.5633 96C44.4093 96 50.7272 88.0043 54.4557 74.6126C54.5697 74.1983 54.3314 73.7685 53.9172 73.6545ZM2.05396 54.5353C2.05396 50.7395 7.76073 46.9332 17.3825 44.2714C17.341 45.5039 17.3152 46.7468 17.3152 48C17.3152 53.9502 17.7709 59.7346 18.6253 65.1307C8.2268 62.4533 2.05396 58.528 2.05396 54.5353Z" fill="#EB5054"/>
<path d="M84.7969 44.2973L85.2163 39.8179C85.2578 39.3622 84.7399 39.067 84.3722 39.3363L78.1942 43.8727C77.9353 44.0591 77.9042 44.432 78.1217 44.665L83.3469 50.2682C83.6628 50.6048 84.222 50.4132 84.2687 49.9523L84.6467 45.8871C91.2442 48.3677 94.9416 51.4334 94.9416 54.525C94.9416 62.0805 73.6733 68.4656 48.4952 68.4656C40.3701 68.4656 32.364 67.808 25.3471 66.5651C24.9224 66.4926 24.5237 66.7722 24.446 67.1969C24.3735 67.6215 24.6532 68.0203 25.0778 68.098C32.1828 69.3563 40.282 70.0192 48.4952 70.0192C75.4133 70.0192 96.4952 63.2146 96.4952 54.525C96.5004 50.6514 92.3783 47.0782 84.7969 44.2973Z" fill="#EB5054"/>
<path d="M33.5965 54.7632C32.9855 54.7632 32.4624 54.5457 32.0222 54.1159C31.5924 53.6757 31.3749 53.1527 31.3749 52.5416C31.3749 52.1428 31.2299 51.8062 30.9451 51.5266C30.6706 51.2418 30.3289 51.0968 29.9301 51.0968C29.5314 51.0968 29.1948 51.2418 28.9151 51.5266C28.6303 51.8011 28.4853 52.1428 28.4853 52.5416C28.4853 53.9502 28.9876 55.1516 29.9871 56.1459C30.9814 57.1505 32.1828 57.6477 33.5913 57.6477C34.9999 57.6477 36.2013 57.1453 37.1956 56.1459C38.1951 55.1516 38.6974 53.9502 38.6974 52.5416C38.6974 51.5162 38.4126 50.5737 37.8429 49.7193C37.2888 48.8907 36.5535 48.2693 35.6421 47.8602L38.2572 42.1793C38.4747 41.6977 38.4437 41.2368 38.1588 40.7966C37.874 40.3565 37.4701 40.139 36.947 40.139H29.9301C29.5314 40.139 29.1948 40.2788 28.9151 40.5532C28.6303 40.8381 28.4853 41.1799 28.4853 41.5786C28.4853 41.9773 28.6303 42.314 28.9151 42.5936C29.1896 42.8784 29.5314 43.0234 29.9301 43.0234H34.7099L32.2915 48.2796C32.074 48.7509 32.1051 49.2118 32.3899 49.6623C32.6644 50.1025 33.0683 50.32 33.6017 50.32C34.2128 50.32 34.7358 50.5375 35.176 50.9673C35.6058 51.4075 35.8233 51.9305 35.8233 52.5416C35.8233 53.1527 35.6058 53.6757 35.176 54.1159C34.7358 54.5457 34.2076 54.7632 33.5965 54.7632Z" fill="white"/>
<path d="M49.4325 40.9313C49.2616 40.574 48.9872 40.3306 48.6143 40.1959C48.2415 40.0665 47.8738 40.0872 47.5165 40.2581C47.1592 40.429 46.9158 40.7034 46.7811 41.0763L43.3477 50.7653C43.3477 50.7757 43.3374 50.7964 43.3218 50.8275L43.3115 50.8741C43.3115 50.8689 43.3063 50.8741 43.3011 50.9C43.1199 51.4282 43.0318 51.9771 43.0318 52.5364C43.0318 53.945 43.5342 55.1464 44.5336 56.1407C45.5279 57.1453 46.7293 57.6425 48.1379 57.6425C49.5465 57.6425 50.7479 57.1401 51.7422 56.1407C52.7416 55.1464 53.244 53.945 53.244 52.5364C53.244 51.1278 52.7416 49.9264 51.7422 48.9321C50.7479 47.9327 49.5465 47.4304 48.1379 47.4304C47.9515 47.4304 47.765 47.4407 47.5734 47.4666L49.4947 42.0395C49.6241 41.6614 49.6034 41.2886 49.4325 40.9313ZM48.1379 50.3148C48.749 50.3148 49.2772 50.5323 49.7122 50.9621C50.142 51.4023 50.3595 51.9253 50.3595 52.5364C50.3595 53.1475 50.142 53.6705 49.7122 54.1107C49.272 54.5405 48.749 54.758 48.1379 54.758C47.5268 54.758 47.0038 54.5405 46.5636 54.1107C46.1338 53.6705 45.9163 53.1475 45.9163 52.5364C45.9163 51.9253 46.1338 51.4023 46.5636 50.9621C47.0038 50.5323 47.5268 50.3148 48.1379 50.3148Z" fill="white"/>
<path d="M57.2159 45.2554V52.5623C57.2159 53.9657 57.713 55.1619 58.7073 56.1562C59.7016 57.1505 60.8978 57.6476 62.3012 57.6476C63.7098 57.6476 64.9112 57.1505 65.9055 56.1562C66.8998 55.1619 67.3969 53.9657 67.3969 52.5623V45.2554C67.3969 43.8468 66.8998 42.6454 65.9055 41.6511C64.9112 40.6568 63.7098 40.1597 62.3012 40.1597C60.8978 40.1597 59.7016 40.6568 58.7073 41.6511C57.713 42.6454 57.2159 43.8468 57.2159 45.2554ZM60.09 45.2554C60.09 44.6443 60.3075 44.1213 60.7373 43.6811C61.1671 43.2513 61.6902 43.0338 62.3012 43.0338C62.9123 43.0338 63.4353 43.2513 63.8755 43.6811C64.3053 44.1213 64.5228 44.6443 64.5228 45.2554V52.5623C64.5228 53.1734 64.3053 53.6964 63.8755 54.1262C63.4353 54.556 62.9123 54.7735 62.3012 54.7735C61.6902 54.7735 61.1671 54.556 60.7373 54.1262C60.3075 53.6964 60.09 53.1734 60.09 52.5623V45.2554Z" fill="white"/>
<path d="M70.4575 38.4766C72.0162 38.4766 73.285 37.2079 73.285 35.6492C73.285 34.0904 72.0162 32.8217 70.4575 32.8217C68.8987 32.8217 67.63 34.0904 67.63 35.6492C67.63 37.2079 68.8987 38.4766 70.4575 38.4766ZM70.4575 34.3752C71.1617 34.3752 71.7314 34.9449 71.7314 35.6492C71.7314 36.3534 71.1617 36.9231 70.4575 36.9231C69.7532 36.9231 69.1835 36.3534 69.1835 35.6492C69.1835 34.9449 69.7532 34.3752 70.4575 34.3752Z" fill="white"/>
</svg>
